<svg aria-hidden="true" style="position: absolute; width: 0; height: 0; overflow: hidden;" version="1.1" xmlns="http://www.w3.org/2000/svg" xmlns:xlink="http://www.w3.org/1999/xlink">
<defs>
<symbol id="location" viewBox="0 0 24 32">
<path d="M12.191 19.68c3.362 0 6.095-2.734 6.095-6.095s-2.734-6.095-6.095-6.095c-3.362 0-6.095 2.734-6.095 6.095s2.734 6.095 6.095 6.095zM12.191 10.537c1.681 0 3.048 1.367 3.048 3.048s-1.367 3.048-3.048 3.048-3.048-1.367-3.048-3.048c0-1.681 1.367-3.048 3.048-3.048z"></path>
<path d="M11.307 31.587c0.258 0.184 0.567 0.283 0.884 0.283s0.626-0.099 0.884-0.283c0.463-0.328 11.351-8.189 11.307-18.002 0-6.722-5.469-12.19-12.191-12.19s-12.19 5.469-12.19 12.183c-0.044 9.821 10.843 17.682 11.307 18.010zM12.191 4.442c5.042 0 9.143 4.101 9.143 9.15 0.032 6.763-6.686 12.835-9.143 14.827-2.455-1.993-9.175-8.067-9.143-14.834 0-5.042 4.101-9.143 9.143-9.143z"></path>
</symbol>
<symbol id="phone" viewBox="0 0 30 32">
<path d="M23.532 17.933c-0.148-0.149-0.325-0.267-0.519-0.347s-0.402-0.122-0.612-0.122c-0.21 0-0.418 0.041-0.612 0.122s-0.37 0.199-0.519 0.347l-2.55 2.55c-1.182-0.352-3.389-1.152-4.787-2.55s-2.198-3.605-2.55-4.787l2.55-2.55c0.149-0.148 0.267-0.325 0.347-0.519s0.122-0.402 0.122-0.612c0-0.21-0.041-0.418-0.122-0.612s-0.198-0.37-0.347-0.519l-6.4-6.4c-0.148-0.149-0.325-0.267-0.519-0.347s-0.402-0.122-0.612-0.122c-0.21 0-0.418 0.041-0.612 0.122s-0.37 0.198-0.519 0.347l-4.339 4.339c-0.608 0.608-0.95 1.443-0.938 2.296 0.037 2.278 0.64 10.192 6.877 16.429s14.15 6.838 16.43 6.877h0.045c0.845 0 1.643-0.333 2.248-0.938l4.339-4.339c0.149-0.148 0.267-0.325 0.347-0.519s0.122-0.402 0.122-0.612c0-0.21-0.041-0.418-0.122-0.612s-0.198-0.37-0.347-0.519l-6.4-6.402zM23.328 28.672c-1.997-0.034-8.829-0.57-14.197-5.939-5.386-5.386-5.907-12.242-5.939-14.198l3.208-3.208 4.138 4.138-2.069 2.069c-0.188 0.188-0.326 0.42-0.402 0.675s-0.087 0.524-0.033 0.785c0.038 0.184 0.978 4.547 3.634 7.203s7.019 3.595 7.203 3.634c0.26 0.056 0.53 0.046 0.785-0.030s0.487-0.214 0.674-0.403l2.070-2.069 4.138 4.138-3.21 3.208z"></path>
</symbol>
<symbol id="email" viewBox="0 0 38 32">
<path d="M33.882 1.722h-30.118c-2.076 0-3.765 1.688-3.765 3.765v22.588c0 2.076 1.688 3.765 3.765 3.765h30.118c2.076 0 3.765-1.688 3.765-3.765v-22.588c0-2.076-1.688-3.765-3.765-3.765zM33.882 5.487v0.962l-15.059 11.714-15.059-11.712v-0.964h30.118zM3.765 28.075v-16.858l13.903 10.814c0.33 0.259 0.737 0.4 1.156 0.4s0.826-0.141 1.156-0.4l13.903-10.814 0.004 16.858h-30.121z"></path>
</symbol>
</defs>
</svg>
