<?xml version="1.0" encoding="utf-8"?>
<svg aria-hidden="true" version="1.1" xmlns="http://www.w3.org/2000/svg" xmlns:xlink="http://www.w3.org/1999/xlink">
    <defs>
        <symbol id="icon-book" viewBox="0 0 32 32">
            <path d="M28.247 1.479c0.494-0.026 1.028-0.053 1.474 0.044 0.251 0.055 0.417 0.145 0.561 0.359 0.093 0.491 0.174 0.977 0.193 1.477 0.041 1.059 0.030 2.127 0.020 3.192-0.005 0.483-0.008 0.966-0.008 1.447l-0.001 9.176c0 0.301 0.010 0.808 0.021 1.426 0.038 2.162 0.101 5.679-0.099 6.453-0.143 0.555-0.436 0.81-0.93 1.094-0.442 0.055-0.903 0.065-1.359 0.075-0.239 0.005-0.478 0.010-0.712 0.021-2.202 0.109-4.528 0.328-6.551 1.237-0.542 0.244-1.085 0.53-1.561 0.882-0.244 0.18-0.516 0.431-0.807 0.699-0.725 0.667-1.562 1.439-2.352 1.481-0.91 0.049-1.773-0.709-2.57-1.408-0.379-0.332-0.743-0.652-1.089-0.865-0.84-0.516-1.791-0.913-2.733-1.213-1.555-0.495-3.202-0.748-4.832-0.842-0.246-0.014-0.499-0.014-0.754-0.013-0.473 0.002-0.953 0.002-1.399-0.094-0.389-0.084-0.639-0.276-0.932-0.528-0.214-0.495-0.28-1.106-0.307-1.639-0.047-0.954-0.035-1.918-0.023-2.879 0.006-0.427 0.011-0.853 0.011-1.277l0.006-8.116-0.007-6.141c-0-0.268-0.011-0.56-0.023-0.861-0.033-0.816-0.069-1.705 0.114-2.401 0.1-0.382 0.327-0.551 0.656-0.756 3.619-0.228 7.572 0.503 10.751 2.224 1.056 0.572 2.009 1.272 2.97 1.979 0.541-0.392 1.085-0.785 1.642-1.155 2.993-1.99 6.558-2.974 10.169-3.061 0.147-0.004 0.302-0.012 0.462-0.020zM27.831 4.236c-0.438 0.004-0.903-0.023-1.337 0.033-2.97 0.261-6.78 1.318-8.797 3.619-0.086 0.098-0.169 0.2-0.249 0.303l-0.004 18.073c0.33-0.233 0.656-0.474 0.991-0.7 2.775-1.613 6.247-1.89 9.409-2.111 0-6.401 0.088-12.816-0.014-19.216zM4.162 4.24c-0.068 2.674-0.053 5.357-0.038 8.037 0.006 1.099 0.011 2.198 0.011 3.296 0 0.806-0.011 1.617-0.021 2.43v0.007c-0.023 1.8-0.047 3.61 0.045 5.389 3.655 0.306 7.325 0.657 10.369 2.831-0.018-5.998 0.016-11.995 0.102-17.991-2.393-2.458-6.138-3.91-9.591-4.004-0.292-0.006-0.586-0.004-0.878 0.006z" stroke-linecap="butt" stroke-linejoin="miter" stroke-miterlimit="4" stroke-width="0.4443"/>
        </symbol>
        <symbol id="icon-arrow-up" viewBox="0 0 32 32">
            <path d="M0.781 22.114l3.771 3.771 11.448-11.448 11.448 11.448 3.771-3.771-15.219-15.219-15.219 15.219z"/>
        </symbol>
        <symbol id="icon-arrow-down" viewBox="0 0 32 32">
            <path d="M27.448 6.115l-11.448 11.448-11.448-11.448-3.771 3.771 15.219 15.219 15.219-15.219-3.771-3.771z"/>
        </symbol>
        <symbol id="icon-arrow-left" viewBox="0 0 32 32">
            <path d="M22.114 0.781l-15.219 15.219 15.219 15.219 3.771-3.771-11.448-11.448 11.448-11.448-3.771-3.771z"/>
        </symbol>
        <symbol id="icon-arrow-right" viewBox="0 0 32 32">
            <path d="M9.885 31.866l15.219-15.219-15.219-15.219-3.771 3.771 11.448 11.448-11.448 11.448 3.771 3.771z"/>
        </symbol>
        <symbol id="icon-arrow-top" viewBox="0 0 32 32">
            <path d="M13.714 10.089v21.911h4.571v-21.911l9.813 9.813 3.232-3.232-15.33-15.33-15.33 15.33 3.232 3.232 9.813-9.813z"/>
        </symbol>
        <symbol id="icon-arrow-bottom" viewBox="0 0 32 32">
            <path d="M31.33 15.33l-3.232-3.232-9.813 9.813v-21.911h-4.571v21.911l-9.813-9.813-3.232 3.232 15.33 15.33 15.33-15.33z"/>
        </symbol>
        <symbol id="icon-arrow-back" viewBox="0 0 32 32">
            <path d="M19.902 28.098l-9.813-9.813h21.911v-4.571h-21.911l9.813-9.813-3.232-3.232-15.33 15.33 15.33 15.33 3.232-3.232z"/>
        </symbol>
        <symbol id="icon-arrow-next" viewBox="0 0 32 32">
            <path d="M12.098 28.098l3.232 3.232 15.33-15.33-15.33-15.33-3.232 3.232 9.813 9.813h-21.911v4.571h21.911l-9.813 9.813z"/>
        </symbol>
        <symbol id="icon-minus" viewBox="0 0 32 32">
            <path d="M0 13.714h32v4.571h-32v-4.571z"/>
        </symbol>
        <symbol id="icon-plus" viewBox="0 0 32 32">
            <path d="M32 13.714h-13.714v-13.714h-4.571v13.714h-13.714v4.571h13.714v13.714h4.571v-13.714h13.714v-4.571z"/>
        </symbol>
        <symbol id="icon-10check" viewBox="0 0 32 32">
            <path d="M10.667 21.517l-7.025-7.025-3.017 3.017 10.042 10.042 20.708-20.708-3.017-3.017-17.692 17.692z"/>
        </symbol>
        <symbol id="icon-close" viewBox="0 0 32 32">
            <path d="M27.179 0.918l-11.315 11.312-11.312-11.312-3.771 3.771 11.312 11.312-11.312 11.312 3.771 3.771 11.312-11.312 11.315 11.312 3.771-3.771-11.312-11.312 11.312-11.312-3.771-3.771z"/>
        </symbol>
        <symbol id="icon-star" viewBox="0 0 32 32">
            <path d="M7.226 19.717l-2.384 10.323c-0.074 0.313-0.052 0.64 0.064 0.94s0.318 0.558 0.582 0.74c0.264 0.183 0.577 0.281 0.899 0.283s0.635-0.093 0.902-0.273l8.712-5.808 8.712 5.808c0.273 0.181 0.594 0.274 0.921 0.267s0.644-0.114 0.908-0.307c0.264-0.193 0.463-0.462 0.57-0.771s0.116-0.644 0.028-0.959l-2.926-10.24 7.258-6.531c0.232-0.209 0.399-0.482 0.477-0.785s0.068-0.622-0.033-0.918-0.285-0.556-0.532-0.749c-0.247-0.192-0.544-0.308-0.856-0.333l-9.122-0.726-3.947-8.738c-0.126-0.281-0.33-0.52-0.589-0.688s-0.56-0.257-0.868-0.257c-0.308 0-0.61 0.089-0.868 0.257s-0.463 0.407-0.589 0.688l-3.947 8.738-9.122 0.725c-0.306 0.024-0.599 0.136-0.844 0.323s-0.43 0.439-0.534 0.728c-0.104 0.289-0.123 0.602-0.055 0.902s0.223 0.573 0.443 0.788l6.742 6.571zM11.79 12.795c0.286-0.023 0.56-0.121 0.794-0.286s0.42-0.39 0.537-0.651l2.878-6.37 2.878 6.37c0.117 0.261 0.303 0.486 0.537 0.651s0.508 0.264 0.794 0.286l6.355 0.504-5.234 4.71c-0.454 0.41-0.635 1.040-0.469 1.629l2.005 7.016-5.978-3.986c-0.262-0.176-0.571-0.27-0.887-0.27s-0.625 0.094-0.887 0.27l-6.246 4.165 1.68-7.274c0.062-0.268 0.053-0.546-0.024-0.81s-0.221-0.503-0.418-0.694l-4.861-4.739 6.544-0.522z"/>
        </symbol>
        <symbol id="icon-align-left" viewBox="0 0 32 32">
            <path d="M0 4h32v4h-32v-4zM8 14h24v4h-24v-4zM18 24h14v4h-14v-4z"/>
        </symbol>
        <symbol id="icon-email" viewBox="0 0 32 32">
            <path d="M28.8 3.2h-25.6c-1.765 0-3.2 1.435-3.2 3.2v19.2c0 1.765 1.435 3.2 3.2 3.2h25.6c1.765 0 3.2-1.435 3.2-3.2v-19.2c0-1.765-1.435-3.2-3.2-3.2zM28.8 6.4v0.818l-12.8 9.957-12.8-9.955v-0.819h25.6zM3.2 25.6v-14.33l11.818 9.192c0.28 0.22 0.626 0.34 0.982 0.34s0.702-0.12 0.982-0.34l11.818-9.192 0.003 14.33h-25.603z"/>
        </symbol>
        <symbol id="icon-phone" viewBox="0 0 32 32">
            <path d="M24.77 17.336c-0.156-0.157-0.342-0.281-0.546-0.365s-0.423-0.128-0.645-0.128c-0.221 0-0.44 0.044-0.645 0.128s-0.39 0.209-0.546 0.365l-2.685 2.685c-1.245-0.371-3.567-1.213-5.039-2.685s-2.314-3.795-2.685-5.039l2.685-2.685c0.157-0.156 0.281-0.342 0.365-0.546s0.128-0.423 0.128-0.645c0-0.221-0.044-0.44-0.128-0.645s-0.209-0.39-0.365-0.546l-6.737-6.737c-0.156-0.157-0.342-0.281-0.546-0.365s-0.423-0.128-0.645-0.128c-0.221 0-0.44 0.044-0.645 0.128s-0.39 0.209-0.546 0.365l-4.568 4.568c-0.64 0.64-1 1.519-0.987 2.417 0.039 2.398 0.674 10.729 7.239 17.294s14.895 7.198 17.295 7.239h0.047c0.889 0 1.73-0.35 2.366-0.987l4.568-4.568c0.157-0.156 0.281-0.342 0.365-0.546s0.128-0.423 0.128-0.645c0-0.221-0.044-0.44-0.128-0.645s-0.209-0.39-0.365-0.546l-6.737-6.739zM24.556 28.64c-2.102-0.035-9.293-0.6-14.944-6.252-5.669-5.669-6.218-12.886-6.252-14.946l3.377-3.377 4.355 4.355-2.178 2.178c-0.198 0.198-0.344 0.442-0.423 0.71s-0.092 0.552-0.035 0.826c0.040 0.194 1.029 4.787 3.825 7.582s7.389 3.784 7.582 3.825c0.274 0.059 0.558 0.048 0.826-0.032s0.512-0.226 0.71-0.425l2.179-2.178 4.355 4.355-3.379 3.377z"/>
        </symbol>
        <symbol id="icon-location" viewBox="0 0 26 32">
            <path d="M12.8 19.2c3.53 0 6.4-2.87 6.4-6.4s-2.87-6.4-6.4-6.4c-3.53 0-6.4 2.87-6.4 6.4s2.87 6.4 6.4 6.4zM12.8 9.6c1.765 0 3.2 1.435 3.2 3.2s-1.435 3.2-3.2 3.2c-1.765 0-3.2-1.435-3.2-3.2s1.435-3.2 3.2-3.2z"/>
            <path d="M11.872 31.702c0.271 0.193 0.595 0.297 0.928 0.297s0.657-0.104 0.928-0.297c0.486-0.344 11.918-8.598 11.872-18.902 0-7.058-5.742-12.8-12.8-12.8s-12.8 5.742-12.8 12.792c-0.046 10.312 11.386 18.566 11.872 18.91zM12.8 3.2c5.294 0 9.6 4.306 9.6 9.608 0.034 7.101-7.021 13.477-9.6 15.568-2.578-2.093-9.634-8.47-9.6-15.576 0-5.294 4.306-9.6 9.6-9.6z"/>
        </symbol>
        <symbol id="icon-booksy-title" viewBox="0 0 121 32">
            <path d="m2.144 16.94-.004.28.004-.275v-.005z"/>
            <path d="M21.611 3.241c.398-.021.828-.043 1.188.037.203.045.337.119.453.297.075.407.141.81.156 1.224.033.878.025 1.763.017 2.646-.004.401-.009.801-.009 1.2v7.608c0 .25.007.67.016 1.182.031 1.792.082 4.707-.08 5.35-.116.46-.351.672-.75.908-.356.045-.728.054-1.097.063-.193.004-.385.007-.574.017-1.776.09-3.652.273-5.284 1.027a6.733 6.733 0 0 0-1.259.732c-.197.15-.418.358-.652.579-.584.553-1.259 1.192-1.896 1.227-.734.04-1.43-.588-2.072-1.168-.306-.276-.6-.539-.879-.716-.678-.428-1.444-.758-2.205-1.007-1.254-.41-2.582-.621-3.898-.699-.199-.012-.404-.011-.609-.01-.382.001-.768.003-1.128-.077-.313-.07-.516-.229-.751-.438-.173-.41-.226-.917-.247-1.359a39.576 39.576 0 0 1-.018-2.388c.004-.354.008-.707.009-1.058l.006-6.729-.006-5.092c0-.222-.01-.463-.02-.713-.026-.676-.055-1.413.092-1.99.081-.317.265-.457.53-.626 2.919-.189 6.107.417 8.672 1.844.852.474 1.619 1.054 2.395 1.641.436-.325.876-.65 1.325-.957 2.414-1.65 5.289-2.464 8.202-2.537.119-.003.245-.01.374-.017zm-.337 2.286c-.354.003-.728-.019-1.078.027-2.396.217-5.47 1.093-7.097 3.001a5.916 5.916 0 0 0-.199.251l-.004 14.983c.266-.193.53-.393.8-.581 2.238-1.337 5.038-1.567 7.59-1.75 0-5.307.071-10.626-.011-15.932zM2.183 5.53c-.055 2.217-.043 4.443-.031 6.665.005.911.01 1.821.01 2.73 0 .668-.009 1.341-.017 2.016v.006c-.019 1.492-.037 2.993.037 4.469 2.948.254 5.907.545 8.362 2.347-.015-4.973.013-9.945.082-14.916-1.93-2.038-4.951-3.241-7.736-3.32a13.881 13.881 0 0 0-.707.004z"/>
            <path d="M21.611 3.241zm1.187.037zm.453.297.35-.064-.013-.07-.039-.06-.298.194zm.157 1.225zm.017 2.646zm-.009 8.808h-.355.355zm.016 1.182zm-.08 5.349zm-.75.908.045.353.073-.009.063-.037-.18-.306zm-1.096.063zm-.574.017-.018-.355.018.355zM15.648 24.8zm-1.259.731zm-.652.58zm-1.896 1.227.02.355-.02-.355zM9.768 26.17zm-.879-.716zm-2.204-1.007.111-.338-.11.338zm-3.898-.699-.021.355.021-.355zm-.609-.01zm-1.128-.076-.077.347h.001l.077-.347zm-.752-.438-.328.138.031.075.061.054.236-.266zm-.247-1.359zm-.018-2.388zm.008-1.058zm.006-6.729h.355v-.001H.047zM.041 6.598zm-.02-.713zm.093-1.99zm.529-.627L.62 2.913l-.091.006-.077.049.191.3zm8.672 1.844zm2.395 1.641-.214.284.213.161.214-.16-.212-.285zm1.325-.958zm8.202-2.537.009.355-.009-.355zm.037 2.269.355-.005-.006-.353-.353.003.003.355zm-1.078.027.032.354.015-.002-.047-.352zm-7.097 3.001-.27-.231-.001.001.271.229zm-.198.252-.284-.213-.071.095v.119h.355zm-.005 14.983h-.355v.698l.565-.41-.209-.288zm.8-.581-.182-.305-.01.006-.01.007.203.292zm7.59-1.75.025.354.33-.024v-.331h-.355zM2.183 5.53l-.012-.355-.335.011-.008.335.355.009zm-.031 6.664zm.01 2.731zm-.017 2.015-.355-.005v.005h.355zm0 .006.355.005v-.005h-.355zm.037 4.469-.355.018.016.31.309.026.03-.354zm8.362 2.346-.21.287.568.417-.002-.704-.355.001zm.082-14.916.355.005.002-.145-.099-.105-.258.244zm-7.735-3.32.01-.355h-.002l-.008.355zm18.72-2.284.019.355c.411-.022.788-.039 1.091.029l.155-.694c-.417-.093-.898-.065-1.284-.045l.019.355zm1.187.037-.077.347c.078.017.12.035.147.052a.275.275 0 0 1 .086.092l.595-.389a.974.974 0 0 0-.302-.304 1.15 1.15 0 0 0-.372-.145l-.077.347zm.453.297-.35.064c.074.405.136.787.151 1.174l.71-.026a8.793 8.793 0 0 0-.162-1.275l-.35.064zm.157 1.225-.355.013c.032.869.025 1.746.017 2.63l.711.007a57.72 57.72 0 0 0-.017-2.663l-.355.013zm.017 2.646-.355-.003c-.004.399-.008.803-.008 1.204h.711c0-.397.005-.795.008-1.197l-.355-.003zm-.009 1.2h-.355v7.608h.711V8.646h-.355zm0 7.608h-.355c0 .253.007.677.016 1.188l.711-.012c-.009-.513-.015-.93-.016-1.176h-.355zm.016 1.182-.355.006c.016.897.036 2.07.032 3.098-.002.514-.01.99-.027 1.374-.018.396-.044.664-.074.784l.689.173c.05-.201.078-.539.095-.926a33.9 33.9 0 0 0 .027-1.403c.004-1.037-.017-2.218-.032-3.113l-.355.006zm-.08 5.349-.345-.087a.882.882 0 0 1-.191.39 1.56 1.56 0 0 1-.395.298l.361.612c.21-.124.407-.258.568-.441.166-.188.277-.41.347-.687l-.345-.087zm-.75.908-.045-.353c-.335.042-.689.052-1.06.06l.016.711c.366-.008.756-.017 1.134-.065l-.045-.353zm-1.096.063-.008-.355c-.19.004-.389.008-.584.017l.018.355.018.355c.182-.009.368-.012.564-.017l-.008-.355zm-.574.017-.018-.355c-1.779.09-3.716.274-5.415 1.059l.298.645c1.564-.723 3.379-.904 5.153-.995l-.018-.355zM15.648 24.8l-.149-.323a7.183 7.183 0 0 0-1.325.771l.43.566a6.414 6.414 0 0 1 1.192-.692l-.149-.323zm-1.259.731-.215-.283a9.064 9.064 0 0 0-.681.604l.489.516c.238-.226.444-.419.623-.555l-.215-.283zm-.652.58-.244-.258c-.296.28-.594.561-.893.778-.305.221-.564.34-.779.352l.02.355.02.355c.422-.024.819-.241 1.157-.487.344-.249.675-.564.964-.837l-.244-.258zm-1.896 1.227-.02-.355c-.259.014-.54-.088-.858-.295s-.631-.488-.957-.782l-.476.528c.316.286.672.608 1.046.851s.808.434 1.284.408l-.02-.355zM9.768 26.17l.238-.264c-.299-.27-.617-.557-.928-.753l-.38.601c.249.157.519.398.831.679l.238-.264zm-.879-.716.19-.3c-.709-.448-1.504-.789-2.284-1.044l-.221.676c.74.242 1.479.561 2.125.97l.19-.301zm-2.204-1.007.11-.338c-1.289-.422-2.649-.636-3.987-.716l-.042.71c1.293.077 2.59.284 3.808.682l.11-.338zm-3.898-.699.021-.355c-.212-.013-.429-.011-.632-.011l.001.355.001.355c.209-.001.402-.002.587.009l.021-.355zm-.609-.01-.001-.355c-.39.001-.735.001-1.05-.068l-.153.694c.405.089.832.086 1.206.085l-.001-.355zm-1.128-.076.077-.347c-.22-.049-.365-.155-.593-.357l-.471.532c.244.216.503.428.91.518l.077-.347zm-.752-.438.328-.138c-.147-.349-.199-.802-.22-1.239l-.71.034c.022.448.076 1.009.275 1.48l.328-.138zm-.247-1.359.355-.017a39.584 39.584 0 0 1-.018-2.366l-.711-.009c-.01.795-.02 1.606.019 2.409l.355-.017zm-.018-2.388.355.004c.004-.354.008-.709.009-1.062h-.711c0 .349-.004.701-.009 1.054l.355.005zm.008-1.058h.355l.006-6.729-.711-.001-.006 6.729H.04zm.006-6.729h.355L.396 6.598l-.711.001.006 5.092h.355zM.041 6.598h.355c0-.23-.01-.48-.02-.727l-.71.028c.01.252.019.486.02.699h.355zm-.02-.713.355-.014c-.027-.692-.05-1.372.082-1.888l-.689-.176c-.163.637-.129 1.431-.103 2.092l.355-.014zm.093-1.99.344.088c.046-.178.126-.255.377-.415l-.382-.599c-.281.179-.567.383-.683.838l.344.088zm.529-.627.023.355c2.86-.185 5.978.41 8.476 1.8l.346-.621C6.856 3.338 3.598 2.721.62 2.914l.023.355zm8.672 1.844-.173.311c.827.46 1.574 1.025 2.353 1.614l.429-.567c-.772-.584-1.559-1.18-2.436-1.668l-.173.311zm2.395 1.641.212.285a40.99 40.99 0 0 1 1.313-.949l-.401-.587a39.33 39.33 0 0 0-1.337.966l.212.285zm1.325-.958.201.293c2.351-1.606 5.157-2.404 8.01-2.475l-.009-.355-.009-.355c-2.971.074-5.915.905-8.393 2.599l.201.293zm8.202-2.537.009.355c.125-.003.258-.011.384-.017l-.038-.71c-.131.007-.251.014-.363.017l.009.355zm.037 2.269-.003-.355c-.319.003-.743-.02-1.122.03l.047.352.047.352c.321-.043.646-.021 1.034-.024l-.003-.355zm-1.078.027-.032-.354c-1.224.111-2.625.39-3.931.888-1.304.497-2.538 1.221-3.404 2.237l.541.461c.761-.893 1.877-1.561 3.116-2.034a14.364 14.364 0 0 1 3.742-.844l-.032-.354zm-7.097 3.001-.271-.229a6.865 6.865 0 0 0-.212.267l.568.427a5.88 5.88 0 0 1 .186-.236l-.271-.229zm-.198.252h-.355l-.004 14.983h.711l.004-14.983h-.355zm-.005 14.983.209.288c.274-.199.527-.392.793-.577l-.405-.584c-.274.19-.548.398-.806.585l.209.288zm.8-.581.182.305c2.154-1.287 4.866-1.516 7.433-1.701l-.025-.354-.026-.355c-2.536.182-5.424.412-7.746 1.799l.182.305zm7.59-1.75h.355c0-5.301.071-10.628-.011-15.937l-.711.011c.082 5.303.012 10.612.011 15.926h.355zM2.183 5.53l-.355-.009c-.055 2.223-.043 4.455-.031 6.675l.711-.004c-.012-2.223-.024-4.443.031-6.654l-.355-.009zm-.031 6.664-.355.002c.005.911.01 1.82.01 2.728h.711c0-.91-.005-1.821-.01-2.732l-.355.002zm.01 2.731h-.355c0 .665-.008 1.336-.017 2.011l.711.009c.009-.674.017-1.349.017-2.02h-.355zm-.017 2.015H1.79v.006h.711v-.006h-.355zm0 .006-.355-.005c-.019 1.491-.038 3.003.037 4.491l.71-.036c-.074-1.462-.055-2.952-.037-4.446l-.355-.005zm.037 4.469-.03.354c2.961.255 5.819.545 8.182 2.279l.421-.573c-2.548-1.87-5.608-2.162-8.542-2.414l-.03.354zm8.362 2.346.355-.001a892.8 892.8 0 0 1 .082-14.91l-.711-.01c-.07 4.974-.097 9.948-.082 14.922l.355-.001zm.082-14.916.258-.244C8.881 6.487 5.768 5.251 2.9 5.171l-.02.711c2.703.076 5.63 1.247 7.488 3.209l.258-.244zm-7.735-3.32.008-.355a14.684 14.684 0 0 0-.727.004l.023.71c.229-.007.459-.009.688-.004l.008-.355zM32.524 4.877c2.847-.049 7.642-.133 9.222.472 1.206.462 2.232 1.371 2.757 2.56.518 1.172.554 2.722.085 3.915-.501 1.274-1.421 1.812-2.611 2.325l.278.098c.255.088.512.177.751.295a4.709 4.709 0 0 1 2.338 2.673c.483 1.425.298 3.022-.357 4.357a5.254 5.254 0 0 1-2.018 1.965c-.745.416-1.482.583-2.322.695-1.278.17-8.692.281-9.624-.035-.126-.043-.251-.09-.308-.215-.137-.297-.156-.753-.17-1.104l-.004-.097c-.089-1.993-.06-4.013-.031-6.024.013-.895.025-1.788.027-2.676.002-.856-.009-1.718-.02-2.581-.022-1.683-.043-3.372.034-5.037.017-.361.047-.763.177-1.102.099-.259.226-.348.47-.463.357-.002.809-.011 1.325-.02zm7.118 10.818c-1.038-.247-4.314-.076-5.561-.075l.001 5.687c1.464.003 4.651.188 5.905-.134a2.618 2.618 0 0 0 1.183-.628c.564-.665.857-1.337.773-2.229-.075-.793-.414-1.468-1.031-1.977a3.178 3.178 0 0 0-1.27-.645zm-4.527-7.933c-.395.013-.75.024-1.036.024l.003 5.062c.332.001.737.011 1.179.023 1.46.037 3.323.085 4.296-.163a2.974 2.974 0 0 0 1.19-.594c.475-.576.734-1.233.673-1.99-.054-.665-.371-1.317-.902-1.729-1-.776-3.621-.691-5.403-.634zM61.897 16.201a7.504 7.504 0 0 0-14.875 1.979 7.504 7.504 0 0 0 14.875-1.98zm-7.951-3.268c.834-.041 1.569-.027 2.309.423.83.506 1.346 1.37 1.571 2.299.319 1.316.244 3.129-.496 4.3-.53.839-1.27 1.21-2.206 1.416-.898.09-1.789.006-2.559-.51-.811-.545-1.284-1.433-1.467-2.374-.261-1.336-.179-3.073.629-4.217.554-.785 1.293-1.172 2.219-1.336zM77.999 16.156a7.494 7.494 0 1 0-14.847 2.05A7.494 7.494 0 0 0 78 16.156zm-8.01-3.222c.811-.067 1.596-.041 2.325.367.866.485 1.395 1.336 1.641 2.277.354 1.351.284 3.093-.456 4.311-.524.863-1.271 1.265-2.226 1.479-.894.116-1.776.016-2.545-.489-.821-.54-1.297-1.418-1.497-2.361-.281-1.333-.19-3.05.587-4.208.527-.786 1.262-1.188 2.17-1.375zM80.991 4.27c.056-.005.112-.009.168-.011.557-.02 1.799-.128 2.177.383.161.217.185.672.205.94.085 1.132.016 2.316.016 3.453l.001 6.695c.792-.941 1.703-1.803 2.538-2.709.825-.894 1.617-1.923 2.531-2.719.218-.19.383-.29.664-.367.584-.159 2.698-.277 3.143.04.114.081.21.238.202.381-.04.637-4.249 4.788-4.983 5.514a578.476 578.476 0 0 0 4.085 5.861c.342.496 1.314 1.561 1.189 2.176a.497.497 0 0 1-.251.316c-.631.348-3.056.119-3.813-.128-.541-.544-.982-1.33-1.417-1.962l-2.634-3.841-1.259 1.094c-.005 1.007.296 3.971-.351 4.646-.29.303-.669.326-1.063.33-.603.006-1.769.107-2.209-.324-.113-1.16-.075-2.335-.076-3.499l-.002-4.972.001-6.813c0-1.211-.043-2.44.013-3.649.008-.163.012-.303.109-.442.232-.335.652-.341 1.019-.391zM106.602 9.803c.795-.017 2.377-.193 3.092.103.268.111.39.385.51.635.509 1.061.842 2.284 1.252 3.392.713 1.928 1.481 3.835 2.204 5.759.42-1.086 3.322-9.174 3.797-9.577.233-.197.675-.24.966-.248.612-.018 1.755-.153 2.219.274.117.276.102.426.034.722-.238 1.032-.743 2.104-1.113 3.098l-2.381 6.398-1.609 4.362c-.323.88-.608 1.822-1.028 2.659a5.416 5.416 0 0 1-.875 1.285c-.855.916-1.974 1.31-3.206 1.353-.528.018-1.434.117-1.841-.261-.26-.526-.282-1.753-.114-2.32.163-.552 1.373-.447 1.86-.721.785-.441.999-1.311 1.201-2.119-.63-1.906-5.376-13.56-5.33-14.219.02-.286.155-.409.362-.574zM98.805 9.747c.398-.061.835-.044 1.24-.04 1.609.016 3.409.355 4.567 1.565.532.556.921 1.397.862 2.181-.01.134-.047.325-.161.406-.578.408-2.155.328-2.842.236-.609-.082-.562-.489-.938-.935-.414-.491-1.019-.732-1.649-.777-.701-.051-1.587.177-2.109.669-.23.217-.473.777-.436 1.091.162 1.366 4.012 1.542 5.12 1.821.94.237 1.907.589 2.658 1.221.712.6 1.034 1.417 1.107 2.332.089 1.127-.24 2.206-.987 3.059-1.299 1.482-3.193 1.918-5.076 2.056-1.448.049-3.006-.149-4.308-.818-.945-.486-1.798-1.244-2.113-2.29-.129-.427-.215-.928.012-1.333.658-.516 2.457-.314 3.256-.285.27.41.434.892.803 1.231.621.572 1.536.745 2.356.704.67-.033 1.384-.224 1.833-.756a1.44 1.44 0 0 0 .355-1.058c-.148-1.55-3.966-1.544-5.147-1.817-.853-.196-1.723-.542-2.414-1.09-.728-.578-1.193-1.355-1.281-2.287a4.365 4.365 0 0 1 .977-3.148c1.094-1.326 2.667-1.776 4.316-1.937z"/>
        </symbol>
    </defs>
</svg>