<svg width="22" height="22" viewBox="0 0 22 22" fill="none" xmlns="http://www.w3.org/2000/svg">
<path fill-rule="evenodd" clip-rule="evenodd" d="M19.4197 1.0166C19.7595 0.999029 20.1264 0.980212 20.4334 1.04687C20.606 1.08437 20.7204 1.1467 20.8191 1.29394C20.8827 1.63166 20.9389 1.96596 20.9519 2.30957C20.9798 3.03795 20.9728 3.77164 20.9656 4.50391C20.9624 4.83602 20.9598 5.16814 20.9598 5.49902L20.9588 11.8076C20.959 12.0147 20.9659 12.3634 20.9734 12.7881C20.9998 14.2747 21.0426 16.6923 20.9051 17.2246C20.8065 17.6062 20.6055 17.7816 20.2654 17.9766C19.9617 18.0141 19.6448 18.0216 19.3309 18.0283C19.1665 18.0319 19.0024 18.0351 18.8416 18.043C17.3275 18.1178 15.7284 18.2683 14.3377 18.8936C13.9654 19.061 13.5916 19.2578 13.2644 19.5C13.0968 19.6241 12.9094 19.7966 12.7098 19.9805C12.2116 20.4393 11.6356 20.9696 11.0926 20.999C10.4669 21.0324 9.87342 20.5118 9.32597 20.0312C9.06539 19.8026 8.81522 19.5829 8.57695 19.4365C7.99921 19.0817 7.34595 18.8089 6.69804 18.6025C5.62926 18.2625 4.49697 18.0883 3.37577 18.0234C3.20664 18.0135 3.03238 18.0141 2.85722 18.0146C2.53184 18.0157 2.20216 18.0161 1.89531 17.9502C1.62794 17.8924 1.45571 17.7601 1.25468 17.5869C1.10764 17.2468 1.06184 16.8265 1.04374 16.46C1.01134 15.8044 1.01966 15.1413 1.02812 14.4805C1.0319 14.1871 1.03575 13.8941 1.03593 13.6025L1.03984 8.02246L1.03495 3.80078C1.03484 3.6165 1.02767 3.4161 1.01933 3.20898C0.996845 2.64802 0.971971 2.03689 1.09745 1.55859C1.16643 1.29579 1.32248 1.17945 1.54863 1.03906C4.03662 0.882146 6.75416 1.38514 8.94023 2.56836C9.66636 2.96136 10.3211 3.44257 10.9822 3.92871C11.3539 3.65908 11.7283 3.38926 12.1111 3.13476C14.1691 1.76664 16.62 1.09046 19.1023 1.03027C19.2035 1.02781 19.3102 1.02226 19.4197 1.0166ZM19.1336 2.91211C18.8322 2.91453 18.513 2.89602 18.2146 2.93457C16.1727 3.11417 13.5535 3.8406 12.1668 5.42285C12.108 5.49052 12.0506 5.56 11.9959 5.63086L11.993 18.0557C12.2197 17.8953 12.4443 17.7298 12.6746 17.5742C14.5824 16.4655 16.9691 16.2751 19.1434 16.123C19.1435 11.722 19.2036 7.31229 19.1336 2.91211ZM2.86113 2.91504C2.81434 4.75325 2.82488 6.59833 2.83476 8.44043C2.83884 9.1959 2.84245 9.95179 2.84257 10.7061C2.84269 11.2601 2.8352 11.8179 2.82792 12.377V12.3818C2.81189 13.6193 2.79586 14.8635 2.85917 16.0869C5.37176 16.2974 7.89512 16.5389 9.98808 18.0332C9.97571 13.9099 9.99905 9.78675 10.0584 5.66406C8.41325 3.97422 5.83868 2.97605 3.46464 2.91113C3.2637 2.90694 3.06195 2.90867 2.86113 2.91504Z" fill="#010101" stroke="#010101" stroke-width="0.305446"/>
</svg>
